<svg xmlns="http://www.w3.org/2000/svg" viewBox="0 0 112.15 54.83"><defs><style>.cls-1{fill:#1e1e1e;}.cls-2{fill:#00aeef;}</style></defs><title>Ресурс 2</title><g id="Слой_2" data-name="Слой 2"><g id="Слой_1-2" data-name="Слой 1"><path class="cls-1" d="M10.63,19.46a4.3,4.3,0,0,0-2.53-.8H0v28.4H3.76l-.09-12h4c3,0,4.76-3.48,5.26-4.57a1.67,1.67,0,0,0,.15-.66c0-.61,0-2.08,0-4.31C13.12,22.06,11.79,20.32,10.63,19.46ZM8.86,28.84a2.37,2.37,0,0,1-.1.7,2.24,2.24,0,0,1-2,1.69c-1.84,0-2.83,0-2.83,0V22.37H6.71a.94.94,0,0,1,.37.07,3.08,3.08,0,0,1,1.78,3Z"/><path class="cls-1" d="M26.28,34.09c2-.7,2.49-3.48,2.56-3.91,0,0,0-.07,0-.1,0-.41.1-3.45,0-6.54-.09-2.39-2-3.87-3.13-4.51a2.87,2.87,0,0,0-1.4-.37H16v28.4h3.9l-.1-11.78,2.48,0L25,47.06h5.13S26.86,37,26.28,34.09ZM25,28.84a2.09,2.09,0,0,1-.11.7,2.21,2.21,0,0,1-2.05,1.69c-1.83,0-2.82,0-2.82,0V22.37H22.8a.94.94,0,0,1,.37.07,3.08,3.08,0,0,1,1.78,3Z"/><path class="cls-1" d="M40.32,18.24H39a6,6,0,0,0-6,6V41.08a6,6,0,0,0,6,6h1.37a6,6,0,0,0,6-6V24.23A6,6,0,0,0,40.32,18.24ZM42.06,41a2.43,2.43,0,1,1-4.85,0V24.57a2.43,2.43,0,0,1,4.85,0Z"/><polygon class="cls-1" points="60.82 22.15 60.82 18.24 53.34 18.24 52.42 18.24 49.14 18.24 49.14 47.06 53.34 47.06 53.34 34.9 59.2 34.9 59.2 31.1 53.34 31.1 53.34 22.15 60.82 22.15"/><rect class="cls-2" x="63.95" width="10.06" height="47.06"/><polygon class="cls-2" points="112.15 0.79 100.51 0.79 90.63 0.79 78.56 0.79 78.56 8.57 90.63 8.57 90.63 47.06 100.51 47.06 100.51 8.57 112.15 8.57 112.15 0.79"/><rect class="cls-1" y="50.66" width="60.82" height="4.17"/><rect class="cls-2" x="63.95" y="50.66" width="48.2" height="4.17"/></g></g></svg>